<svg width="16" height="12" viewBox="0 0 16 12" fill="none" xmlns="http://www.w3.org/2000/svg">
<g clip-path="url(#clip0_2181:5088)">
<path fill-rule="evenodd" clip-rule="evenodd" d="M1 11.625C1 11.5255 1.05268 11.4302 1.14645 11.3598C1.24021 11.2895 1.36739 11.25 1.5 11.25H14.5C14.6326 11.25 14.7598 11.2895 14.8536 11.3598C14.9473 11.4302 15 11.5255 15 11.625C15 11.7245 14.9473 11.8198 14.8536 11.8902C14.7598 11.9605 14.6326 12 14.5 12H1.5C1.36739 12 1.24021 11.9605 1.14645 11.8902C1.05268 11.8198 1 11.7245 1 11.625V11.625ZM11.5 1.5H11V0.75H11.5C11.8978 0.75 12.2794 0.868526 12.5607 1.0795C12.842 1.29048 13 1.57663 13 1.875V11.25H12V1.875C12 1.77554 11.9473 1.68016 11.8536 1.60984C11.7598 1.53951 11.6326 1.5 11.5 1.5V1.5Z" fill="black"/>
<path fill-rule="evenodd" clip-rule="evenodd" d="M10.828 0.0915166C10.8821 0.126769 10.9254 0.170327 10.9551 0.21924C10.9848 0.268153 11.0001 0.321278 11 0.375017V11.25H10V0.807767L4 1.45052V11.25H3V1.12502C3.00002 1.03467 3.04353 0.947357 3.12253 0.879148C3.20154 0.810939 3.31072 0.766416 3.43 0.753767L10.43 0.00376661C10.5008 -0.00382193 10.573 8.50791e-05 10.6417 0.0152236C10.7104 0.0303621 10.7739 0.0563792 10.828 0.0915166V0.0915166Z" fill="black"/>
<path d="M8 6.75C8 7.164 8.224 7.5 8.5 7.5C8.776 7.5 9 7.164 9 6.75C9 6.336 8.776 6 8.5 6C8.224 6 8 6.336 8 6.75Z" fill="black"/>
</g>
<defs>
<clipPath id="clip0_2181:5088">
<rect width="16" height="12" fill="white"/>
</clipPath>
</defs>
</svg>
