<svg width="18" height="18" viewBox="0 0 18 18" fill="none" xmlns="http://www.w3.org/2000/svg">
<g clip-path="url(#clip0_2181:5047)">
<path fill-rule="evenodd" clip-rule="evenodd" d="M2 14.625C2 14.5255 2.05268 14.4302 2.14645 14.3598C2.24021 14.2895 2.36739 14.25 2.5 14.25H15.5C15.6326 14.25 15.7598 14.2895 15.8536 14.3598C15.9473 14.4302 16 14.5255 16 14.625C16 14.7245 15.9473 14.8198 15.8536 14.8902C15.7598 14.9605 15.6326 15 15.5 15H2.5C2.36739 15 2.24021 14.9605 2.14645 14.8902C2.05268 14.8198 2 14.7245 2 14.625ZM12.5 4.5H12V3.75H12.5C12.8978 3.75 13.2794 3.86853 13.5607 4.0795C13.842 4.29048 14 4.57663 14 4.875V14.25H13V4.875C13 4.77554 12.9473 4.68016 12.8536 4.60984C12.7598 4.53951 12.6326 4.5 12.5 4.5Z" fill="#184DC9"/>
<path fill-rule="evenodd" clip-rule="evenodd" d="M11.828 3.09152C11.8821 3.12677 11.9254 3.17033 11.9551 3.21924C11.9848 3.26815 12.0001 3.32128 12 3.37502V14.25H11V3.80777L5 4.45052V14.25H4V4.12502C4.00002 4.03467 4.04353 3.94736 4.12253 3.87915C4.20154 3.81094 4.31072 3.76642 4.43 3.75377L11.43 3.00377C11.5008 2.99618 11.573 3.00009 11.6417 3.01522C11.7104 3.03036 11.7739 3.05638 11.828 3.09152Z" fill="#184DC9"/>
<path d="M9 9.75C9 10.164 9.224 10.5 9.5 10.5C9.776 10.5 10 10.164 10 9.75C10 9.336 9.776 9 9.5 9C9.224 9 9 9.336 9 9.75Z" fill="#184DC9"/>
</g>
<defs>
<clipPath id="clip0_2181:5047">
<rect width="16" height="12" fill="white" transform="translate(1 3)"/>
</clipPath>
</defs>
</svg>
