<svg width="9" height="12" viewBox="0 0 9 12" fill="none" xmlns="http://www.w3.org/2000/svg">
<path fill-rule="evenodd" clip-rule="evenodd" d="M4.5 12C4.5 12 9 7.7355 9 4.5C9 3.30653 8.52589 2.16193 7.68198 1.31802C6.83807 0.474106 5.69347 0 4.5 0C3.30653 0 2.16193 0.474106 1.31802 1.31802C0.474106 2.16193 1.77842e-08 3.30653 0 4.5C0 7.7355 4.5 12 4.5 12ZM4.5 6.75C5.09674 6.75 5.66903 6.51295 6.09099 6.09099C6.51295 5.66903 6.75 5.09674 6.75 4.5C6.75 3.90326 6.51295 3.33097 6.09099 2.90901C5.66903 2.48705 5.09674 2.25 4.5 2.25C3.90326 2.25 3.33097 2.48705 2.90901 2.90901C2.48705 3.33097 2.25 3.90326 2.25 4.5C2.25 5.09674 2.48705 5.66903 2.90901 6.09099C3.33097 6.51295 3.90326 6.75 4.5 6.75Z" fill="#184DC9"/>
</svg>
